<svg width="89" height="52" viewBox="0 0 89 52" fill="none" xmlns="http://www.w3.org/2000/svg">
<path d="M89 26C89 40.1788 57.3458 51.6731 43.2213 51.6731C29.0967 51.6731 0 40.1788 0 26C0 11.8211 29.0967 0.32692 43.2213 0.32692C57.3458 0.32692 89 11.8211 89 26Z" fill="white"/>
<path d="M20.1589 20.989L22.6995 28.7127H22.8045L25.3452 20.989H27.2884L23.8418 30.8084H21.6622L18.2091 20.989H20.1589Z" fill="#0085D0"/>
<path d="M28.004 30.8084V23.4406H29.7306V30.8084H28.004ZM28.8705 22.4059C28.5948 22.4059 28.3585 22.3137 28.1615 22.1291C27.9646 21.9446 27.8661 21.7227 27.8661 21.4635C27.8661 21.1999 27.9646 20.9759 28.1615 20.7913C28.3585 20.6068 28.5948 20.5145 28.8705 20.5145C29.1419 20.5145 29.376 20.6068 29.573 20.7913C29.7699 20.9759 29.8684 21.1977 29.8684 21.4569C29.8684 21.7205 29.7699 21.9446 29.573 22.1291C29.376 22.3137 29.1419 22.4059 28.8705 22.4059Z" fill="#0085D0"/>
<path d="M34.6674 23.4406V24.785H30.4593V23.4406H34.6674ZM31.49 21.6876H33.2165V28.5941C33.2165 28.8841 33.28 29.0994 33.4069 29.2399C33.5338 29.3761 33.7352 29.4442 34.0109 29.4442C34.0853 29.4442 34.1685 29.4377 34.2604 29.4245C34.3523 29.4113 34.4354 29.3959 34.5098 29.3783L34.8053 30.7359C34.6214 30.793 34.4354 30.8348 34.2472 30.8611C34.059 30.8919 33.8708 30.9073 33.6826 30.9073C32.9999 30.9073 32.4638 30.7271 32.0742 30.3669C31.6847 30.0022 31.49 29.5058 31.49 28.8775V21.6876Z" fill="#0085D0"/>
<path d="M37.7332 30.96C37.2649 30.96 36.8448 30.8765 36.4727 30.7096C36.1007 30.5382 35.8075 30.2878 35.593 29.9583C35.3786 29.6288 35.2714 29.2224 35.2714 28.7391C35.2714 28.3261 35.348 27.9834 35.5011 27.711C35.6543 27.4386 35.8622 27.2212 36.1248 27.0586C36.3918 26.896 36.6916 26.773 37.0242 26.6895C37.3568 26.6017 37.7004 26.5402 38.0549 26.505C38.4882 26.4567 38.8383 26.415 39.1053 26.3798C39.3723 26.3447 39.5648 26.2875 39.683 26.2085C39.8055 26.1294 39.8668 26.0064 39.8668 25.8394V25.8065C39.8668 25.4506 39.7618 25.1738 39.5517 24.9761C39.3416 24.7784 39.0353 24.6795 38.6326 24.6795C38.2081 24.6795 37.8711 24.7718 37.6216 24.9563C37.3765 25.1409 37.2102 25.3583 37.1227 25.6088L35.5143 25.3781C35.6412 24.93 35.8513 24.5565 36.1445 24.2578C36.4377 23.9546 36.7944 23.7284 37.2146 23.579C37.6391 23.4252 38.1074 23.3483 38.6195 23.3483C38.9696 23.3483 39.3197 23.3901 39.6699 23.4735C40.02 23.5526 40.3417 23.6888 40.6349 23.8821C40.9282 24.0754 41.1623 24.3347 41.3374 24.6598C41.5124 24.9849 41.6 25.3913 41.6 25.879V30.8084H39.939V29.7935H39.8865C39.7815 29.9956 39.6327 30.1867 39.4401 30.3669C39.2519 30.5426 39.0156 30.6854 38.7311 30.7952C38.451 30.9051 38.1184 30.96 37.7332 30.96ZM38.1731 29.6815C38.5232 29.6815 38.8252 29.6134 39.079 29.4772C39.3329 29.3366 39.5298 29.1521 39.6699 28.9236C39.8099 28.6908 39.88 28.4381 39.88 28.1657V27.3024C39.8231 27.3464 39.7311 27.3881 39.6042 27.4276C39.4773 27.4628 39.3329 27.4957 39.1709 27.5265C39.009 27.5573 38.8493 27.5836 38.6917 27.6056C38.5385 27.6275 38.405 27.6451 38.2912 27.6583C38.033 27.6934 37.8011 27.7528 37.5954 27.8362C37.394 27.9153 37.2343 28.0252 37.1161 28.1657C36.9979 28.3063 36.9389 28.4887 36.9389 28.7127C36.9389 29.0335 37.0548 29.2751 37.2868 29.4377C37.5188 29.6002 37.8142 29.6815 38.1731 29.6815Z" fill="#0085D0"/>
<path d="M42.8801 33.5631V23.4406H44.5739V24.6598H44.6789C44.7665 24.484 44.8912 24.2951 45.0531 24.093C45.2151 23.8865 45.4339 23.7108 45.7096 23.5658C45.9897 23.4208 46.3464 23.3483 46.7797 23.3483C47.3443 23.3483 47.8542 23.4933 48.3093 23.7833C48.7645 24.0732 49.1256 24.4994 49.3925 25.0618C49.6639 25.6241 49.7996 26.3161 49.7996 27.1377C49.7996 27.9461 49.6683 28.6336 49.4057 29.2004C49.1431 29.7672 48.782 30.1999 48.3225 30.4987C47.8673 30.793 47.3508 30.9402 46.7731 30.9402C46.3574 30.9402 46.0094 30.8699 45.7293 30.7293C45.4536 30.5843 45.2304 30.413 45.0597 30.2153C44.8934 30.0132 44.7665 29.8221 44.6789 29.6419H44.6067V33.5631H42.8801ZM46.3005 29.5167C46.6812 29.5167 46.9985 29.4135 47.2524 29.207C47.5106 29.0005 47.7054 28.7171 47.8367 28.3569C47.968 27.9966 48.0336 27.588 48.0336 27.1311C48.0336 26.6742 47.968 26.2678 47.8367 25.9119C47.7054 25.556 47.5128 25.277 47.2589 25.0749C47.0051 24.8729 46.6856 24.7718 46.3005 24.7718C45.9284 24.7718 45.6133 24.8685 45.3551 25.0618C45.1013 25.2551 44.9065 25.5297 44.7708 25.8855C44.6395 26.237 44.5739 26.6522 44.5739 27.1311C44.5739 27.6056 44.6395 28.023 44.7708 28.3832C44.9065 28.7391 45.1035 29.0181 45.3617 29.2202C45.6199 29.4179 45.9328 29.5167 46.3005 29.5167Z" fill="#0085D0"/>
<path d="M50.7581 30.8084V23.4406H52.4846V30.8084H50.7581ZM51.6246 22.4059C51.3489 22.4059 51.1126 22.3137 50.9156 22.1291C50.7187 21.9446 50.6202 21.7227 50.6202 21.4635C50.6202 21.1999 50.7187 20.9759 50.9156 20.7913C51.1126 20.6068 51.3489 20.5145 51.6246 20.5145C51.896 20.5145 52.1301 20.6068 52.3271 20.7913C52.524 20.9759 52.6225 21.1977 52.6225 21.4569C52.6225 21.7205 52.524 21.9446 52.3271 22.1291C52.1301 22.3137 51.896 22.4059 51.6246 22.4059Z" fill="#0085D0"/>
<path d="M55.4914 20.989V30.8084H53.7648V20.989H55.4914Z" fill="#0085D0"/>
<path d="M58.4981 20.989V30.8084H56.7715V20.989H58.4981Z" fill="#0085D0"/>
<path d="M65.5686 25.3979L63.9995 25.5626C63.9339 25.321 63.7916 25.1079 63.5728 24.9234C63.354 24.7345 63.0454 24.64 62.6472 24.64C62.2883 24.64 61.9863 24.7191 61.7412 24.8772C61.5005 25.0354 61.3801 25.2375 61.3801 25.4835C61.3801 25.6988 61.4589 25.8768 61.6165 26.0173C61.7784 26.1535 62.0454 26.2634 62.4174 26.3469L63.6713 26.6105C64.3584 26.7554 64.8727 26.9927 65.214 27.3222C65.5554 27.6517 65.7261 28.0779 65.7261 28.6007C65.7261 29.062 65.5926 29.4706 65.3256 29.8265C65.0587 30.1823 64.6889 30.4591 64.2162 30.6568C63.7479 30.8545 63.2074 30.9534 62.5946 30.9534C61.6974 30.9534 60.9753 30.7645 60.4282 30.3866C59.8855 30.0044 59.5594 29.475 59.45 28.7984L61.1372 28.6402C61.2116 28.9697 61.3736 29.2202 61.623 29.3915C61.8769 29.5585 62.2007 29.6419 62.5946 29.6419C63.006 29.6419 63.3365 29.5585 63.5859 29.3915C63.8354 29.2202 63.9601 29.0115 63.9601 28.7655C63.9601 28.3525 63.6319 28.0713 62.9754 27.9219L61.7215 27.6583C61.0169 27.5045 60.496 27.2563 60.159 26.9136C59.822 26.5665 59.6535 26.125 59.6535 25.589C59.6535 25.1321 59.7783 24.7367 60.0277 24.4028C60.2772 24.0688 60.6252 23.8096 61.0716 23.6251C61.518 23.4406 62.0344 23.3483 62.6209 23.3483C63.4831 23.3483 64.1593 23.535 64.6495 23.9085C65.144 24.2775 65.4504 24.774 65.5686 25.3979Z" fill="#0085D0"/>
<path d="M67.9188 30.9204C67.6212 30.9204 67.3695 30.8194 67.1638 30.6173C66.9625 30.4108 66.8618 30.1604 66.8618 29.866C66.8618 29.5717 66.9625 29.3234 67.1638 29.1213C67.3695 28.9148 67.6212 28.8116 67.9188 28.8116C68.2164 28.8116 68.4659 28.9148 68.6672 29.1213C68.8729 29.3234 68.9758 29.5717 68.9758 29.866C68.9758 30.1604 68.8729 30.4108 68.6672 30.6173C68.4659 30.8194 68.2164 30.9204 67.9188 30.9204Z" fill="#0085D0"/>
</svg>
