<svg width="20.000000" height="20.000000" viewBox="0 0 20 20" fill="none" xmlns="http://www.w3.org/2000/svg" xmlns:xlink="http://www.w3.org/1999/xlink">
	<desc>
			Created with Pixso.
	</desc>
	<defs>
		<clipPath id="clip2_36">
			<rect id="facebook" rx="-0.500000" width="19.000000" height="19.000000" transform="translate(0.500000 0.500000)" fill="white" fill-opacity="0"/>
		</clipPath>
	</defs>
	<rect id="facebook" rx="-0.500000" width="19.000000" height="19.000000" transform="translate(0.500000 0.500000)" fill="#FFFFFF" fill-opacity="0"/>
	<g clip-path="url(#clip2_36)">
		<path id="Vector" d="M12.5 1.66C11.39 1.66 10.33 2.1 9.55 2.88C8.77 3.66 8.33 4.72 8.33 5.83L8.33 8.33L5.83 8.33L5.83 11.66L8.33 11.66L8.33 18.33L11.66 18.33L11.66 11.66L14.16 11.66L15 8.33L11.66 8.33L11.66 5.83C11.66 5.61 11.75 5.4 11.91 5.24C12.06 5.08 12.27 4.99 12.5 4.99L15 4.99L15 1.66L12.5 1.66Z" stroke="#3E9FD7" stroke-opacity="0.800000" stroke-width="1.000000" stroke-linejoin="round"/>
	</g>
</svg>
