<svg width="25.000000" height="30.110352" viewBox="0 0 25 30.1104" fill="none" xmlns="http://www.w3.org/2000/svg" xmlns:xlink="http://www.w3.org/1999/xlink">
	<desc>
			Created with Pixso.
	</desc>
	<defs/>
	<path id="Vector" d="M12.5 29.11C12.5 29.11 1 21.44 1 12.5C1 9.45 2.21 6.52 4.36 4.36C6.52 2.21 9.45 1 12.5 1C15.55 1 18.47 2.21 20.63 4.36C22.78 6.52 24 9.45 24 12.5C24 21.44 12.5 29.11 12.5 29.11Z" stroke="#00A2FF" stroke-opacity="1.000000" stroke-width="2.000000" stroke-linejoin="round"/>
	<path id="Vector" d="M12.5 16.33C10.38 16.33 8.66 14.61 8.66 12.5C8.66 10.38 10.38 8.66 12.5 8.66C14.61 8.66 16.33 10.38 16.33 12.5C16.33 14.61 14.61 16.33 12.5 16.33Z" stroke="#00A2FF" stroke-opacity="1.000000" stroke-width="2.000000" stroke-linejoin="round"/>
</svg>
