<svg width="90" height="83" viewBox="0 0 90 83" fill="none" xmlns="http://www.w3.org/2000/svg">
<path d="M81.6366 47.7083C86.6246 47.7083 89.1186 50.2023 89.1186 55.1902V75.4747C89.1186 80.4627 86.6246 82.9567 81.6366 82.9567H62.3498C57.3618 82.9567 54.8678 80.4627 54.8678 75.4747V55.1902C54.8678 43.5516 56.0871 33.4094 58.5256 24.7636C61.0751 16.0069 66.0076 8.35865 73.3233 1.81885C75.7619 -0.287187 77.8125 -0.564297 79.4752 0.987519L86.9571 7.97069C88.6198 9.52251 88.2318 11.4069 85.7933 13.6237C82.0246 16.9491 78.9209 21.7708 76.4824 28.0889C74.1546 34.2961 72.9908 40.8359 72.9908 47.7083H81.6366ZM26.7688 47.7083C31.7568 47.7083 34.2508 50.2023 34.2508 55.1902V75.4747C34.2508 80.4627 31.7568 82.9567 26.7688 82.9567H7.48197C2.49399 82.9567 0 80.4627 0 75.4747V55.1902C0 43.5516 1.21928 33.4094 3.65785 24.7636C6.20726 16.0069 11.1398 8.35865 18.4555 1.81885C20.8941 -0.287187 22.9447 -0.564297 24.6074 0.987519L32.0893 7.97069C33.752 9.52251 33.364 11.4069 30.9255 13.6237C27.1568 16.9491 24.0532 21.7708 21.6146 28.0889C19.2869 34.2961 18.123 40.8359 18.123 47.7083H26.7688Z" fill="#00A2FF" fill-opacity="0.3"/>
</svg>
