<svg width="23.000000" height="23.000000" viewBox="0 0 23 23" fill="none" xmlns="http://www.w3.org/2000/svg" xmlns:xlink="http://www.w3.org/1999/xlink">
	<desc>
			Created with Pixso.
	</desc>
	<defs>
		<clipPath id="clip7_196">
			<rect id="shopping-cart-blue" width="23.000000" height="23.000000" fill="white" fill-opacity="0"/>
		</clipPath>
	</defs>
	<g clip-path="url(#clip7_196)">
		<circle id="id_101" cx="8.625000" cy="20.125000" r="0.958333" fill="#000000" fill-opacity="0"/>
		<circle id="id_101" cx="8.625000" cy="20.125000" r="0.958333" stroke="#00A2FF" stroke-opacity="1.000000" stroke-width="2.000000" stroke-linejoin="round"/>
		<circle id="id_102" cx="19.166626" cy="20.125000" r="0.958333" fill="#000000" fill-opacity="0"/>
		<circle id="id_102" cx="19.166626" cy="20.125000" r="0.958333" stroke="#00A2FF" stroke-opacity="1.000000" stroke-width="2.000000" stroke-linejoin="round"/>
		<path id="id_103" d="M0.97 1.93L0.95 1.95C0.39 1.95 -0.05 1.51 -0.05 0.95C-0.05 0.39 0.39 -0.05 0.95 -0.05L0.97 -0.03L0.97 1.93ZM5.75 6.75L5.76 6.72L5.76 5.84L7.35 13.79C7.45 14.24 7.67 14.61 8.03 14.91C8.39 15.2 8.81 15.34 9.27 15.33L18.59 15.33C19.05 15.34 19.46 15.2 19.83 14.91C20.19 14.61 20.41 14.24 20.5 13.79L22.04 5.75L5.76 5.75L5.76 4.76L5.75 4.75C5.19 4.75 4.75 5.18 4.75 5.75C4.75 6.3 5.19 6.75 5.75 6.75Z" fill="#000000" fill-opacity="0" fill-rule="evenodd"/>
		<path id="id_103" d="M0.95 0.95L4.79 0.95L7.35 13.79C7.45 14.24 7.67 14.61 8.03 14.91C8.39 15.2 8.81 15.34 9.27 15.33L18.59 15.33C19.05 15.34 19.46 15.2 19.83 14.91C20.19 14.61 20.41 14.24 20.5 13.79L22.04 5.75L5.75 5.75" stroke="#00A2FF" stroke-opacity="1.000000" stroke-width="2.000000" stroke-linejoin="round" stroke-linecap="round"/>
	</g>
</svg>
