<svg width="19" height="20" viewBox="0 0 19 20" fill="none" xmlns="http://www.w3.org/2000/svg">
<path d="M7.12499 18.342C7.56222 18.342 7.91666 17.9875 7.91666 17.5503C7.91666 17.1131 7.56222 16.7586 7.12499 16.7586C6.68777 16.7586 6.33333 17.1131 6.33333 17.5503C6.33333 17.9875 6.68777 18.342 7.12499 18.342Z" stroke="#002032" stroke-linecap="round" stroke-linejoin="round"/>
<path d="M15.8333 18.342C16.2706 18.342 16.625 17.9875 16.625 17.5503C16.625 17.1131 16.2706 16.7586 15.8333 16.7586C15.3961 16.7586 15.0417 17.1131 15.0417 17.5503C15.0417 17.9875 15.3961 18.342 15.8333 18.342Z" stroke="#002032" stroke-linecap="round" stroke-linejoin="round"/>
<path d="M0.791664 1.71695H3.95833L6.08 12.3174C6.15239 12.6818 6.35067 13.0093 6.64014 13.2423C6.9296 13.4753 7.2918 13.5991 7.66333 13.5919H15.3583C15.7299 13.5991 16.0921 13.4753 16.3815 13.2423C16.671 13.0093 16.8693 12.6818 16.9417 12.3174L18.2083 5.67528H4.75" stroke="#002032" stroke-linecap="round" stroke-linejoin="round"/>
</svg>
