<svg width="19.000000" height="19.000000" viewBox="0 0 19 19" fill="none" xmlns="http://www.w3.org/2000/svg" xmlns:xlink="http://www.w3.org/1999/xlink">
	<desc>
			Created with Pixso.
	</desc>
	<defs>
		<clipPath id="clip79_1607">
			<rect id="shopping-cart" rx="-0.500000" width="18.000000" height="18.000000" transform="translate(0.500000 0.500000)" fill="white" fill-opacity="0"/>
		</clipPath>
	</defs>
	<rect id="shopping-cart" rx="-0.500000" width="18.000000" height="18.000000" transform="translate(0.500000 0.500000)" fill="#FFFFFF" fill-opacity="0"/>
	<g clip-path="url(#clip79_1607)">
		<path id="Vector" d="M7.12 17.41C6.68 17.41 6.33 17.06 6.33 16.62C6.33 16.18 6.68 15.83 7.12 15.83C7.56 15.83 7.91 16.18 7.91 16.62C7.91 17.06 7.56 17.41 7.12 17.41Z" stroke="#FFFFFF" stroke-opacity="1.000000" stroke-width="1.000000" stroke-linejoin="round"/>
		<path id="Vector" d="M15.83 17.41C15.39 17.41 15.04 17.06 15.04 16.62C15.04 16.18 15.39 15.83 15.83 15.83C16.27 15.83 16.62 16.18 16.62 16.62C16.62 17.06 16.27 17.41 15.83 17.41Z" stroke="#FFFFFF" stroke-opacity="1.000000" stroke-width="1.000000" stroke-linejoin="round"/>
		<path id="Vector" d="M0.79 0.79L3.95 0.79L6.08 11.39C6.15 11.75 6.35 12.08 6.64 12.31C6.92 12.54 7.29 12.67 7.66 12.66L15.35 12.66C15.72 12.67 16.09 12.54 16.38 12.31C16.67 12.08 16.86 11.75 16.94 11.39L18.2 4.75L4.75 4.75" stroke="#FFFFFF" stroke-opacity="1.000000" stroke-width="1.000000" stroke-linejoin="round" stroke-linecap="round"/>
	</g>
</svg>
