<svg width="20.000000" height="20.000000" viewBox="0 0 20 20" fill="none" xmlns="http://www.w3.org/2000/svg" xmlns:xlink="http://www.w3.org/1999/xlink">
	<desc>
			Created with Pixso.
	</desc>
	<defs>
		<clipPath id="clip2_38">
			<rect id="twitter" rx="-0.500000" width="19.000000" height="19.000000" transform="translate(0.500000 0.500000)" fill="white" fill-opacity="0"/>
		</clipPath>
	</defs>
	<rect id="twitter" rx="-0.500000" width="19.000000" height="19.000000" transform="translate(0.500000 0.500000)" fill="#FFFFFF" fill-opacity="0"/>
	<g clip-path="url(#clip2_38)">
		<path id="Vector" d="M16.54 3.77C16.04 3.19 15.38 2.78 14.63 2.6C13.89 2.41 13.11 2.46 12.4 2.73C11.68 3 11.07 3.49 10.64 4.12C10.21 4.76 9.98 5.51 10 6.27L10 7.1C8.53 7.14 7.08 6.82 5.77 6.16C4.46 5.5 3.34 4.53 2.5 3.33C2.5 3.33 -0.84 10.83 6.66 14.16C4.95 15.33 2.9 15.91 0.83 15.83C8.33 19.99 17.5 15.83 17.5 6.24C17.49 6.01 17.47 5.78 17.43 5.55C18.28 4.71 18.88 3.66 19.16 2.49C18.36 3.06 17.48 3.49 16.54 3.77Z" stroke="#3E9FD7" stroke-opacity="0.800000" stroke-width="1.000000" stroke-linejoin="round"/>
	</g>
</svg>
