<svg width="13.004089" height="13.003906" viewBox="0 0 13.0041 13.0039" fill="none" xmlns="http://www.w3.org/2000/svg" xmlns:xlink="http://www.w3.org/1999/xlink">
	<desc>
			Created with Pixso.
	</desc>
	<defs/>
	<path id="Union" d="M0.148499 0.148438C-0.0494995 0.34668 -0.0494995 0.657715 0.148499 0.855469L5.79492 6.50195L0.148499 12.1484C-0.0494995 12.3467 -0.0494995 12.6577 0.148499 12.8555C0.346497 13.0537 0.657593 13.0537 0.855591 12.8555L6.50208 7.20898L12.1485 12.8555C12.3465 13.0537 12.6576 13.0537 12.8556 12.8555C13.0536 12.6577 13.0536 12.3467 12.8556 12.1484L7.20917 6.50195L12.8556 0.855469C13.0536 0.657715 13.0536 0.34668 12.8556 0.148438C12.6576 -0.0493164 12.3465 -0.0493164 12.1485 0.148438L6.50208 5.79492L0.855591 0.148438C0.657593 -0.0493164 0.346497 -0.0493164 0.148499 0.148438Z" clip-rule="evenodd" fill="#002032" fill-opacity="0.600000" fill-rule="evenodd"/>
</svg>
