<svg width="512" height="341" viewBox="0 0 512 341" fill="none" xmlns="http://www.w3.org/2000/svg">
<g clip-path="url(#clip0_366_511)">
<path d="M0 0H512V341.337H0V0Z" fill="#F0F0F0"/>
<path d="M0 42.6631H512V85.3261H0V42.6631ZM0 128H512V170.663H0V128ZM0 213.326H512V255.989H0V213.326ZM0 298.663H512V341.326H0V298.663Z" fill="#D80027"/>
<path d="M0 0H256V183.797H0V0Z" fill="#2E52B2"/>
<path d="M99.822 75.293L95.699 87.977H82.363L93.154 95.812L89.031 108.495L99.822 100.66L110.606 108.495L106.484 95.812L117.275 87.977H103.938L99.822 75.293ZM103.938 133.749L99.822 121.066L95.699 133.749H82.363L93.154 141.585L89.031 154.268L99.822 146.432L110.606 154.268L106.484 141.585L117.275 133.749H103.938ZM47.577 133.749L43.46 121.066L39.337 133.749H26.001L36.792 141.585L32.669 154.268L43.46 146.432L54.245 154.268L50.123 141.585L60.912 133.749H47.577ZM43.46 75.293L39.337 87.977H26.001L36.792 95.812L32.669 108.495L43.46 100.66L54.245 108.495L50.123 95.812L60.912 87.977H47.577L43.46 75.293ZM99.822 29.519L95.699 42.204H82.363L93.154 50.04L89.031 62.723L99.822 54.887L110.606 62.723L106.484 50.04L117.275 42.204H103.938L99.822 29.519ZM43.46 29.519L39.337 42.204H26.001L36.792 50.04L32.669 62.723L43.46 54.887L54.245 62.723L50.123 50.04L60.912 42.204H47.577L43.46 29.519ZM156.183 75.293L152.061 87.977H138.725L149.515 95.812L145.394 108.495L156.183 100.66L166.969 108.495L162.846 95.812L173.637 87.977H160.301L156.183 75.293ZM160.301 133.749L156.183 121.066L152.061 133.749H138.725L149.515 141.585L145.394 154.268L156.183 146.432L166.969 154.268L162.846 141.585L173.637 133.749H160.301ZM216.663 133.749L212.546 121.066L208.423 133.749H195.088L205.877 141.585L201.755 154.268L212.546 146.432L223.331 154.268L219.208 141.585L229.999 133.749H216.663ZM212.546 75.293L208.423 87.977H195.088L205.877 95.812L201.755 108.495L212.546 100.66L223.331 108.495L219.208 95.812L229.999 87.977H216.663L212.546 75.293ZM156.183 29.519L152.061 42.204H138.725L149.515 50.04L145.394 62.723L156.183 54.887L166.969 62.723L162.846 50.04L173.637 42.204H160.301L156.183 29.519ZM212.546 29.519L208.423 42.204H195.088L205.877 50.04L201.755 62.723L212.546 54.887L223.331 62.723L219.208 50.04L229.999 42.204H216.663L212.546 29.519Z" fill="#F0F0F0"/>
</g>
<defs>
<clipPath id="clip0_366_511">
<rect width="512" height="341" fill="white"/>
</clipPath>
</defs>
</svg>
