<svg width="20.000000" height="20.000000" viewBox="0 0 20 20" fill="none" xmlns="http://www.w3.org/2000/svg" xmlns:xlink="http://www.w3.org/1999/xlink">
	<desc>
			Created with Pixso.
	</desc>
	<defs>
		<clipPath id="clip2_32">
			<rect id="instagram" rx="-0.416667" width="19.166666" height="19.166666" transform="translate(0.416667 0.416667)" fill="white" fill-opacity="0"/>
		</clipPath>
	</defs>
	<rect id="instagram" rx="-0.416667" width="19.166666" height="19.166666" transform="translate(0.416667 0.416667)" fill="#FFFFFF" fill-opacity="0"/>
	<g clip-path="url(#clip2_32)">
		<path id="Vector" d="M14.16 1.66C16.46 1.66 18.33 3.53 18.33 5.83L18.33 14.16C18.33 16.46 16.46 18.33 14.16 18.33L5.83 18.33C3.53 18.33 1.66 16.46 1.66 14.16L1.66 5.83C1.66 3.53 3.53 1.66 5.83 1.66L14.16 1.66Z" stroke="#3E9FD7" stroke-opacity="0.800000" stroke-width="1.000000" stroke-linejoin="round"/>
		<path id="Vector" d="M12.99 11.49C12.67 12.12 12.16 12.62 11.53 12.94C10.9 13.25 10.19 13.36 9.5 13.25C8.81 13.14 8.17 12.81 7.67 12.32C7.18 11.82 6.85 11.18 6.74 10.49C6.63 9.8 6.74 9.09 7.05 8.46C7.37 7.83 7.87 7.32 8.5 7C9.12 6.68 9.83 6.56 10.52 6.66C11.23 6.77 11.88 7.1 12.39 7.6C12.89 8.11 13.22 8.76 13.33 9.47C13.43 10.16 13.31 10.87 12.99 11.49Z" stroke="#3E9FD7" stroke-opacity="0.800000" stroke-width="1.000000" stroke-linejoin="round"/>
		<path id="Vector" d="M14.58 5.41L14.59 5.41" stroke="#3E9FD7" stroke-opacity="0.800000" stroke-width="2.000000" stroke-linejoin="round" stroke-linecap="round"/>
	</g>
</svg>
