<svg width="98" height="57" viewBox="0 0 98 57" fill="none" xmlns="http://www.w3.org/2000/svg">
<path d="M98 28.2625C98 43.8153 63.1448 56.4234 47.592 56.4234C32.0391 56.4234 0 43.8153 0 28.2625C0 12.7096 32.0391 0.101562 47.592 0.101562C63.1448 0.101562 98 12.7096 98 28.2625Z" fill="white"/>
<path d="M18.9017 23.0836L21.6993 31.5557H21.8149L24.6125 23.0836H26.7522L22.9571 33.8545H20.5571L16.7548 23.0836H18.9017Z" fill="#0085D0"/>
<path d="M27.5402 33.8545V25.7727H29.4413V33.8545H27.5402ZM28.4944 24.6378C28.1907 24.6378 27.9305 24.5366 27.7136 24.3342C27.4968 24.1317 27.3884 23.8884 27.3884 23.604C27.3884 23.3149 27.4968 23.0691 27.7136 22.8667C27.9305 22.6643 28.1907 22.5631 28.4944 22.5631C28.7931 22.5631 29.051 22.6643 29.2678 22.8667C29.4847 23.0691 29.5931 23.3125 29.5931 23.5968C29.5931 23.886 29.4847 24.1317 29.2678 24.3342C29.051 24.5366 28.7931 24.6378 28.4944 24.6378Z" fill="#0085D0"/>
<path d="M34.8774 25.7727V27.2474H30.2437V25.7727H34.8774ZM31.3787 23.8498H33.2798V31.4256C33.2798 31.7437 33.3497 31.9798 33.4895 32.134C33.6292 32.2834 33.8509 32.3581 34.1545 32.3581C34.2364 32.3581 34.328 32.3509 34.4292 32.3364C34.5304 32.322 34.622 32.3051 34.7039 32.2858L35.0292 33.775C34.8268 33.8376 34.622 33.8834 34.4148 33.9123C34.2075 33.9461 34.0003 33.9629 33.7931 33.9629C33.0413 33.9629 32.4509 33.7653 32.022 33.3702C31.5931 32.9702 31.3787 32.4256 31.3787 31.7365V23.8498Z" fill="#0085D0"/>
<path d="M38.2533 34.0208C37.7376 34.0208 37.275 33.9292 36.8653 33.7461C36.4557 33.5581 36.1328 33.2834 35.8967 32.922C35.6605 32.5605 35.5424 32.1148 35.5424 31.5846C35.5424 31.1316 35.6268 30.7557 35.7955 30.457C35.9641 30.1582 36.193 29.9196 36.4822 29.7413C36.7762 29.563 37.1063 29.4281 37.4725 29.3365C37.8388 29.2401 38.2171 29.1726 38.6075 29.1341C39.0846 29.0811 39.4701 29.0353 39.7641 28.9967C40.058 28.9582 40.2701 28.8955 40.4002 28.8088C40.5351 28.722 40.6026 28.5871 40.6026 28.404V28.3678C40.6026 27.9775 40.487 27.6739 40.2556 27.457C40.0243 27.2401 39.687 27.1317 39.2436 27.1317C38.7761 27.1317 38.4051 27.2329 38.1304 27.4353C37.8605 27.6377 37.6774 27.8763 37.581 28.151L35.8099 27.898C35.9497 27.4064 36.181 26.9968 36.5039 26.6691C36.8268 26.3365 37.2195 26.0883 37.6822 25.9245C38.1496 25.7558 38.6653 25.6715 39.2291 25.6715C39.6147 25.6715 40.0002 25.7173 40.3857 25.8088C40.7713 25.8956 41.1255 26.045 41.4484 26.257C41.7713 26.4691 42.0291 26.7534 42.2219 27.11C42.4146 27.4666 42.511 27.9124 42.511 28.4473V33.8545H40.6821V32.7413H40.6243C40.5086 32.9629 40.3448 33.1726 40.1327 33.3702C39.9255 33.5629 39.6653 33.7196 39.352 33.84C39.0436 33.9605 38.6773 34.0208 38.2533 34.0208ZM38.7376 32.6184C39.1231 32.6184 39.4556 32.5437 39.7352 32.3943C40.0147 32.2401 40.2315 32.0377 40.3857 31.7871C40.54 31.5316 40.6171 31.2545 40.6171 30.9557V30.0088C40.5544 30.057 40.4532 30.1027 40.3135 30.1461C40.1737 30.1847 40.0147 30.2208 39.8364 30.2545C39.658 30.2883 39.4821 30.3172 39.3087 30.3413C39.14 30.3654 38.993 30.3847 38.8677 30.3991C38.5834 30.4377 38.3279 30.5027 38.1014 30.5943C37.8798 30.681 37.7039 30.8015 37.5737 30.9557C37.4436 31.11 37.3786 31.31 37.3786 31.5557C37.3786 31.9075 37.5063 32.1726 37.7617 32.3509C38.0171 32.5292 38.3424 32.6184 38.7376 32.6184Z" fill="#0085D0"/>
<path d="M43.9206 36.8761V25.7727H45.7857V27.11H45.9013C45.9977 26.9172 46.1351 26.71 46.3134 26.4883C46.4917 26.2618 46.7326 26.0691 47.0363 25.91C47.3447 25.751 47.7374 25.6715 48.2145 25.6715C48.8362 25.6715 49.3977 25.8305 49.8989 26.1486C50.4001 26.4667 50.7976 26.9341 51.0916 27.551C51.3904 28.1678 51.5398 28.9269 51.5398 29.828C51.5398 30.7148 51.3952 31.469 51.1061 32.0907C50.8169 32.7123 50.4193 33.187 49.9133 33.5147C49.4121 33.8376 48.8435 33.9991 48.2073 33.9991C47.7495 33.9991 47.3664 33.922 47.0579 33.7677C46.7543 33.6087 46.5085 33.4208 46.3206 33.2039C46.1375 32.9822 45.9977 32.7726 45.9013 32.575H45.8218V36.8761H43.9206ZM47.6868 32.4376C48.1061 32.4376 48.4555 32.3244 48.735 32.0979C49.0194 31.8714 49.2338 31.5606 49.3784 31.1654C49.523 30.7702 49.5952 30.322 49.5952 29.8208C49.5952 29.3196 49.523 28.8738 49.3784 28.4835C49.2338 28.0931 49.0218 27.7871 48.7422 27.5654C48.4627 27.3437 48.1109 27.2329 47.6868 27.2329C47.2772 27.2329 46.9302 27.3389 46.6459 27.551C46.3664 27.763 46.1519 28.0642 46.0025 28.4546C45.858 28.8401 45.7857 29.2955 45.7857 29.8208C45.7857 30.3413 45.858 30.7991 46.0025 31.1943C46.1519 31.5846 46.3688 31.8907 46.6531 32.1124C46.9375 32.3292 47.282 32.4376 47.6868 32.4376Z" fill="#0085D0"/>
<path d="M52.5952 33.8545V25.7727H54.4964V33.8545H52.5952ZM53.5494 24.6378C53.2458 24.6378 52.9856 24.5366 52.7687 24.3342C52.5518 24.1317 52.4434 23.8884 52.4434 23.604C52.4434 23.3149 52.5518 23.0691 52.7687 22.8667C52.9856 22.6643 53.2458 22.5631 53.5494 22.5631C53.8482 22.5631 54.106 22.6643 54.3229 22.8667C54.5398 23.0691 54.6482 23.3125 54.6482 23.5968C54.6482 23.886 54.5398 24.1317 54.3229 24.3342C54.106 24.5366 53.8482 24.6378 53.5494 24.6378Z" fill="#0085D0"/>
<path d="M57.8072 23.0836V33.8545H55.906V23.0836H57.8072Z" fill="#0085D0"/>
<path d="M61.118 23.0836V33.8545H59.2168V23.0836H61.118Z" fill="#0085D0"/>
<path d="M66.1058 34.0135C65.2962 34.0135 64.5974 33.8449 64.0095 33.5075C63.4215 33.1653 62.9685 32.6834 62.6505 32.0617C62.3372 31.4401 62.1806 30.7076 62.1806 29.8642C62.1806 29.0305 62.3372 28.3004 62.6505 27.6739C62.9637 27.0425 63.4047 26.551 63.9733 26.1992C64.542 25.8474 65.2119 25.6715 65.983 25.6715C66.4793 25.6715 66.9492 25.751 67.3926 25.91C67.8408 26.0691 68.2359 26.3148 68.5781 26.6474C68.9251 26.9799 69.1974 27.404 69.395 27.9196C69.5925 28.4305 69.6913 29.0401 69.6913 29.7485V30.3413H63.0697V29.0618H68.7444L67.8552 29.4377C67.8552 28.9799 67.7853 28.5823 67.6456 28.2449C67.5058 27.9028 67.2986 27.6353 67.0239 27.4425C66.7492 27.2498 66.407 27.1534 65.9974 27.1534C65.5878 27.1534 65.2384 27.2498 64.9492 27.4425C64.6601 27.6353 64.4408 27.8955 64.2914 28.2233C64.142 28.5461 64.0673 28.9076 64.0673 29.3076V30.1967C64.0673 30.6883 64.1517 31.11 64.3203 31.4618C64.4938 31.8087 64.7348 32.0738 65.0432 32.2569C65.3565 32.4401 65.7203 32.5316 66.1348 32.5316C66.4046 32.5316 66.6504 32.4931 66.8721 32.416C67.0986 32.3389 67.2914 32.2232 67.4504 32.069C67.6143 31.9099 67.7396 31.7148 67.8263 31.4834L69.6046 31.6931C69.4889 32.1605 69.2745 32.5702 68.9612 32.922C68.6528 33.269 68.2552 33.5388 67.7685 33.7316C67.2866 33.9196 66.7323 34.0135 66.1058 34.0135Z" fill="#0085D0"/>
<path d="M72.6262 29.1269V33.8545H70.7251V25.7727H72.5901V27.1534H72.6841C72.8672 26.7004 73.1539 26.3414 73.5443 26.0763C73.9395 25.8064 74.4407 25.6715 75.0479 25.6715C75.6069 25.6715 76.0936 25.7896 76.5081 26.0257C76.9225 26.2618 77.243 26.6088 77.4695 27.0666C77.7009 27.5196 77.8165 28.069 77.8165 28.7148V33.8545H75.9153V29.0112C75.9153 28.4714 75.7756 28.0498 75.4961 27.7461C75.2166 27.4377 74.831 27.2835 74.3395 27.2835C74.0069 27.2835 73.7105 27.3558 73.4503 27.5004C73.1949 27.6449 72.9925 27.8546 72.8431 28.1293C72.6985 28.3992 72.6262 28.7317 72.6262 29.1269Z" fill="#0085D0"/>
</svg>
