<svg width="112" height="65" viewBox="0 0 112 65" fill="none" xmlns="http://www.w3.org/2000/svg">
<path d="M112 32.1839C112 49.9586 72.1655 64.3678 54.3908 64.3678C36.6161 64.3678 0 49.9586 0 32.1839C0 14.4092 36.6161 0 54.3908 0C72.1655 0 112 14.4092 112 32.1839Z" fill="#0085D0"/>
<path d="M25.3685 25.9021L28.5657 35.5846H28.6979L31.8951 25.9021H34.3405L30.0032 38.2118H27.2604L22.9148 25.9021H25.3685Z" fill="white"/>
<path d="M35.241 38.2118V28.9754H37.4137V38.2118H35.241ZM36.3315 27.6784C35.9845 27.6784 35.6871 27.5627 35.4392 27.3314C35.1914 27.1001 35.0675 26.8219 35.0675 26.497C35.0675 26.1665 35.1914 25.8856 35.4392 25.6543C35.6871 25.423 35.9845 25.3073 36.3315 25.3073C36.673 25.3073 36.9676 25.423 37.2155 25.6543C37.4633 25.8856 37.5872 26.1638 37.5872 26.4887C37.5872 26.8192 37.4633 27.1001 37.2155 27.3314C36.9676 27.5627 36.673 27.6784 36.3315 27.6784Z" fill="white"/>
<path d="M43.6264 28.9754V30.6608H38.3308V28.9754H43.6264ZM39.6278 26.7779H41.8006V35.4359C41.8006 35.7994 41.8804 36.0693 42.0402 36.2455C42.1999 36.4163 42.4532 36.5016 42.8002 36.5016C42.8939 36.5016 42.9985 36.4934 43.1142 36.4768C43.2298 36.4603 43.3345 36.441 43.4281 36.419L43.7999 38.1209C43.5685 38.1925 43.3345 38.2448 43.0976 38.2779C42.8608 38.3164 42.624 38.3357 42.3871 38.3357C41.528 38.3357 40.8533 38.1099 40.3631 37.6582C39.8729 37.2011 39.6278 36.5787 39.6278 35.7911V26.7779Z" fill="white"/>
<path d="M47.4845 38.4018C46.8952 38.4018 46.3664 38.2971 45.8983 38.0878C45.4301 37.873 45.0611 37.5591 44.7913 37.146C44.5214 36.733 44.3864 36.2235 44.3864 35.6177C44.3864 35.0999 44.4828 34.6703 44.6756 34.3289C44.8684 33.9874 45.13 33.7148 45.4604 33.511C45.7964 33.3072 46.1737 33.153 46.5923 33.0483C47.0108 32.9382 47.4432 32.8611 47.8893 32.817C48.4346 32.7564 48.8752 32.7041 49.2112 32.66C49.5471 32.616 49.7895 32.5444 49.9382 32.4452C50.0924 32.3461 50.1695 32.1919 50.1695 31.9826V31.9413C50.1695 31.4952 50.0373 31.1482 49.7729 30.9003C49.5086 30.6525 49.123 30.5286 48.6163 30.5286C48.0821 30.5286 47.658 30.6442 47.3441 30.8756C47.0356 31.1069 46.8263 31.3795 46.7162 31.6934L44.6921 31.4043C44.8518 30.8425 45.1162 30.3744 45.4852 29.9998C45.8542 29.6198 46.3031 29.3362 46.8318 29.1489C47.3661 28.9561 47.9554 28.8598 48.5998 28.8598C49.0404 28.8598 49.481 28.9121 49.9216 29.0167C50.3623 29.1159 50.7671 29.2866 51.1361 29.5289C51.5051 29.7713 51.7998 30.0962 52.0201 30.5038C52.2404 30.9114 52.3505 31.4208 52.3505 32.0322V38.2118H50.2604V36.9395H50.1943C50.0621 37.1928 49.8748 37.4324 49.6325 37.6582C49.3957 37.8785 49.0982 38.0575 48.7402 38.1952C48.3878 38.3329 47.9692 38.4018 47.4845 38.4018ZM48.038 36.799C48.4786 36.799 48.8587 36.7137 49.1781 36.5429C49.4975 36.3667 49.7454 36.1354 49.9216 35.849C50.0979 35.5571 50.186 35.2404 50.186 34.8989V33.8166C50.1144 33.8717 49.9987 33.924 49.839 33.9736C49.6793 34.0177 49.4976 34.059 49.2938 34.0975C49.09 34.1361 48.889 34.1691 48.6907 34.1967C48.4979 34.2242 48.3299 34.2462 48.1867 34.2628C47.8618 34.3068 47.5699 34.3812 47.311 34.4858C47.0577 34.585 46.8566 34.7227 46.7079 34.8989C46.5592 35.0751 46.4849 35.3037 46.4849 35.5846C46.4849 35.9867 46.6308 36.2896 46.9227 36.4934C47.2146 36.6972 47.5864 36.799 48.038 36.799Z" fill="white"/>
<path d="M53.9615 41.6651V28.9754H56.093V30.5038H56.2252C56.3353 30.2835 56.4923 30.0467 56.6961 29.7933C56.8998 29.5344 57.1752 29.3141 57.5222 29.1324C57.8747 28.9506 58.3236 28.8598 58.8688 28.8598C59.5793 28.8598 60.221 29.0415 60.7938 29.405C61.3666 29.7685 61.8209 30.3028 62.1569 31.0077C62.4984 31.7127 62.6691 32.5802 62.6691 33.6101C62.6691 34.6235 62.5039 35.4855 62.1734 36.196C61.843 36.9064 61.3886 37.449 60.8103 37.8235C60.2375 38.1925 59.5876 38.377 58.8606 38.377C58.3373 38.377 57.8995 38.2889 57.547 38.1126C57.2 37.9309 56.9191 37.7161 56.7043 37.4682C56.495 37.2149 56.3353 36.9753 56.2252 36.7495H56.1343V41.6651H53.9615ZM58.2657 36.5925C58.7449 36.5925 59.1442 36.4631 59.4637 36.2042C59.7886 35.9454 60.0337 35.5901 60.1989 35.1385C60.3642 34.6869 60.4468 34.1746 60.4468 33.6018C60.4468 33.029 60.3642 32.5196 60.1989 32.0735C60.0337 31.6274 59.7914 31.2776 59.4719 31.0243C59.1525 30.7709 58.7504 30.6442 58.2657 30.6442C57.7976 30.6442 57.401 30.7654 57.0761 31.0077C56.7566 31.2501 56.5116 31.5943 56.3408 32.0404C56.1756 32.481 56.093 33.0015 56.093 33.6018C56.093 34.1967 56.1756 34.7199 56.3408 35.1715C56.5116 35.6177 56.7594 35.9674 57.0844 36.2207C57.4093 36.4686 57.8031 36.5925 58.2657 36.5925Z" fill="white"/>
<path d="M63.8753 38.2118V28.9754H66.0481V38.2118H63.8753ZM64.9658 27.6784C64.6188 27.6784 64.3214 27.5627 64.0736 27.3314C63.8257 27.1001 63.7018 26.8219 63.7018 26.497C63.7018 26.1665 63.8257 25.8856 64.0736 25.6543C64.3214 25.423 64.6188 25.3073 64.9658 25.3073C65.3073 25.3073 65.602 25.423 65.8498 25.6543C66.0976 25.8856 66.2216 26.1638 66.2216 26.4887C66.2216 26.8192 66.0976 27.1001 65.8498 27.3314C65.602 27.5627 65.3073 27.6784 64.9658 27.6784Z" fill="white"/>
<path d="M69.8318 25.9021V38.2118H67.6591V25.9021H69.8318Z" fill="white"/>
<path d="M73.6156 25.9021V38.2118H71.4428V25.9021H73.6156Z" fill="white"/>
<path d="M82.5132 31.4291L80.5387 31.6356C80.4561 31.3327 80.2771 31.0656 80.0017 30.8342C79.7264 30.5974 79.3381 30.479 78.8369 30.479C78.3852 30.479 78.0052 30.5781 77.6968 30.7764C77.3939 30.9747 77.2424 31.228 77.2424 31.5365C77.2424 31.8064 77.3415 32.0294 77.5398 32.2057C77.7436 32.3764 78.0796 32.5141 78.5477 32.6187L80.1257 32.9492C80.9904 33.1309 81.6375 33.4284 82.0671 33.8414C82.4967 34.2545 82.7115 34.7887 82.7115 35.4442C82.7115 36.0225 82.5435 36.5347 82.2076 36.9808C81.8716 37.4269 81.4062 37.7739 80.8114 38.0217C80.222 38.2696 79.5418 38.3935 78.7708 38.3935C77.6417 38.3935 76.7329 38.1567 76.0445 37.683C75.3615 37.2039 74.9512 36.5402 74.8135 35.692L76.9367 35.4937C77.0304 35.9068 77.2341 36.2207 77.5481 36.4355C77.8675 36.6448 78.2751 36.7495 78.7708 36.7495C79.2885 36.7495 79.7043 36.6448 80.0183 36.4355C80.3322 36.2207 80.4892 35.9591 80.4892 35.6507C80.4892 35.133 80.0761 34.7805 79.2499 34.5932L77.672 34.2628C76.7853 34.07 76.1299 33.7588 75.7058 33.3292C75.2817 32.8941 75.0696 32.3406 75.0696 31.6687C75.0696 31.0959 75.2266 30.6002 75.5405 30.1816C75.8545 29.763 76.2923 29.4381 76.8541 29.2067C77.4159 28.9754 78.0658 28.8598 78.8038 28.8598C79.8888 28.8598 80.7398 29.0938 81.3566 29.562C81.979 30.0246 82.3645 30.647 82.5132 31.4291Z" fill="white"/>
<path d="M85.4709 38.3522C85.0963 38.3522 84.7796 38.2255 84.5208 37.9722C84.2674 37.7133 84.1407 37.3994 84.1407 37.0304C84.1407 36.6614 84.2674 36.3502 84.5208 36.0968C84.7796 35.838 85.0963 35.7085 85.4709 35.7085C85.8454 35.7085 86.1593 35.838 86.4127 36.0968C86.6715 36.3502 86.8009 36.6614 86.8009 37.0304C86.8009 37.3994 86.6715 37.7133 86.4127 37.9722C86.1593 38.2255 85.8454 38.3522 85.4709 38.3522Z" fill="white"/>
</svg>
