<svg width="99" height="57" viewBox="0 0 99 57" fill="none" xmlns="http://www.w3.org/2000/svg">
<path d="M98.7805 28.2625C98.7805 43.8153 63.9253 56.4234 48.3725 56.4234C32.8196 56.4234 0.780518 43.8153 0.780518 28.2625C0.780518 12.7096 32.8196 0.101562 48.3725 0.101562C63.9253 0.101562 98.7805 12.7096 98.7805 28.2625Z" fill="#0085D0"/>
<path d="M19.6822 23.0836L22.4798 31.5557H22.5955L25.393 23.0836H27.5327L23.7376 33.8545H21.3376L17.5353 23.0836H19.6822Z" fill="white"/>
<path d="M28.3207 33.8545V25.7727H30.2218V33.8545H28.3207ZM29.2749 24.6378C28.9713 24.6378 28.711 24.5366 28.4942 24.3342C28.2773 24.1317 28.1689 23.8884 28.1689 23.604C28.1689 23.3149 28.2773 23.0691 28.4942 22.8667C28.711 22.6643 28.9713 22.5631 29.2749 22.5631C29.5737 22.5631 29.8315 22.6643 30.0484 22.8667C30.2652 23.0691 30.3737 23.3125 30.3737 23.5968C30.3737 23.886 30.2652 24.1317 30.0484 24.3342C29.8315 24.5366 29.5737 24.6378 29.2749 24.6378Z" fill="white"/>
<path d="M35.6579 25.7727V27.2474H31.0242V25.7727H35.6579ZM32.1592 23.8498H34.0603V31.4256C34.0603 31.7437 34.1302 31.9798 34.27 32.134C34.4097 32.2834 34.6314 32.3581 34.935 32.3581C35.017 32.3581 35.1085 32.3509 35.2097 32.3364C35.3109 32.322 35.4025 32.3051 35.4844 32.2858L35.8097 33.775C35.6073 33.8376 35.4025 33.8834 35.1953 33.9123C34.988 33.9461 34.7808 33.9629 34.5736 33.9629C33.8218 33.9629 33.2314 33.7653 32.8025 33.3702C32.3736 32.9702 32.1592 32.4256 32.1592 31.7365V23.8498Z" fill="white"/>
<path d="M39.0338 34.0208C38.5181 34.0208 38.0555 33.9292 37.6458 33.7461C37.2362 33.5581 36.9133 33.2834 36.6772 32.922C36.441 32.5605 36.323 32.1148 36.323 31.5846C36.323 31.1316 36.4073 30.7557 36.576 30.457C36.7446 30.1582 36.9736 29.9196 37.2627 29.7413C37.5567 29.563 37.8868 29.4281 38.2531 29.3365C38.6193 29.2401 38.9976 29.1726 39.388 29.1341C39.8651 29.0811 40.2506 29.0353 40.5446 28.9967C40.8386 28.9582 41.0506 28.8955 41.1807 28.8088C41.3157 28.722 41.3831 28.5871 41.3831 28.404V28.3678C41.3831 27.9775 41.2675 27.6739 41.0361 27.457C40.8048 27.2401 40.4675 27.1317 40.0241 27.1317C39.5566 27.1317 39.1856 27.2329 38.9109 27.4353C38.641 27.6377 38.4579 27.8763 38.3615 28.151L36.5904 27.898C36.7302 27.4064 36.9615 26.9968 37.2844 26.6691C37.6073 26.3365 38 26.0883 38.4627 25.9245C38.9302 25.7558 39.4458 25.6715 40.0097 25.6715C40.3952 25.6715 40.7807 25.7173 41.1663 25.8088C41.5518 25.8956 41.906 26.045 42.2289 26.257C42.5518 26.4691 42.8096 26.7534 43.0024 27.11C43.1951 27.4666 43.2915 27.9124 43.2915 28.4473V33.8545H41.4626V32.7413H41.4048C41.2892 32.9629 41.1253 33.1726 40.9133 33.3702C40.706 33.5629 40.4458 33.7196 40.1325 33.84C39.8241 33.9605 39.4579 34.0208 39.0338 34.0208ZM39.5181 32.6184C39.9036 32.6184 40.2362 32.5437 40.5157 32.3943C40.7952 32.2401 41.0121 32.0377 41.1663 31.7871C41.3205 31.5316 41.3976 31.2545 41.3976 30.9557V30.0088C41.3349 30.057 41.2337 30.1027 41.094 30.1461C40.9542 30.1847 40.7952 30.2208 40.6169 30.2545C40.4386 30.2883 40.2627 30.3172 40.0892 30.3413C39.9205 30.3654 39.7735 30.3847 39.6482 30.3991C39.3639 30.4377 39.1085 30.5027 38.882 30.5943C38.6603 30.681 38.4844 30.8015 38.3543 30.9557C38.2241 31.11 38.1591 31.31 38.1591 31.5557C38.1591 31.9075 38.2868 32.1726 38.5422 32.3509C38.7976 32.5292 39.1229 32.6184 39.5181 32.6184Z" fill="white"/>
<path d="M44.7012 36.8761V25.7727H46.5662V27.11H46.6818C46.7782 26.9172 46.9156 26.71 47.0939 26.4883C47.2722 26.2618 47.5132 26.0691 47.8168 25.91C48.1252 25.751 48.518 25.6715 48.9951 25.6715C49.6167 25.6715 50.1782 25.8305 50.6794 26.1486C51.1806 26.4667 51.5782 26.9341 51.8721 27.551C52.1709 28.1678 52.3203 28.9269 52.3203 29.828C52.3203 30.7148 52.1757 31.469 51.8866 32.0907C51.5974 32.7123 51.1998 33.187 50.6938 33.5147C50.1926 33.8376 49.624 33.9991 48.9878 33.9991C48.53 33.9991 48.1469 33.922 47.8385 33.7677C47.5348 33.6087 47.2891 33.4208 47.1011 33.2039C46.918 32.9822 46.7782 32.7726 46.6818 32.575H46.6023V36.8761H44.7012ZM48.4674 32.4376C48.8866 32.4376 49.236 32.3244 49.5155 32.0979C49.7999 31.8714 50.0143 31.5606 50.1589 31.1654C50.3035 30.7702 50.3758 30.322 50.3758 29.8208C50.3758 29.3196 50.3035 28.8738 50.1589 28.4835C50.0143 28.0931 49.8023 27.7871 49.5228 27.5654C49.2433 27.3437 48.8915 27.2329 48.4674 27.2329C48.0577 27.2329 47.7107 27.3389 47.4264 27.551C47.1469 27.763 46.9324 28.0642 46.7831 28.4546C46.6385 28.8401 46.5662 29.2955 46.5662 29.8208C46.5662 30.3413 46.6385 30.7991 46.7831 31.1943C46.9324 31.5846 47.1493 31.8907 47.4336 32.1124C47.718 32.3292 48.0625 32.4376 48.4674 32.4376Z" fill="white"/>
<path d="M53.3757 33.8545V25.7727H55.2769V33.8545H53.3757ZM54.3299 24.6378C54.0263 24.6378 53.7661 24.5366 53.5492 24.3342C53.3323 24.1317 53.2239 23.8884 53.2239 23.604C53.2239 23.3149 53.3323 23.0691 53.5492 22.8667C53.7661 22.6643 54.0263 22.5631 54.3299 22.5631C54.6287 22.5631 54.8865 22.6643 55.1034 22.8667C55.3203 23.0691 55.4287 23.3125 55.4287 23.5968C55.4287 23.886 55.3203 24.1317 55.1034 24.3342C54.8865 24.5366 54.6287 24.6378 54.3299 24.6378Z" fill="white"/>
<path d="M58.5877 23.0836V33.8545H56.6865V23.0836H58.5877Z" fill="white"/>
<path d="M61.8985 23.0836V33.8545H59.9973V23.0836H61.8985Z" fill="white"/>
<path d="M66.8864 34.0135C66.0767 34.0135 65.378 33.8449 64.79 33.5075C64.2021 33.1653 63.7491 32.6834 63.431 32.0617C63.1177 31.4401 62.9611 30.7076 62.9611 29.8642C62.9611 29.0305 63.1177 28.3004 63.431 27.6739C63.7442 27.0425 64.1852 26.551 64.7539 26.1992C65.3225 25.8474 65.9924 25.6715 66.7635 25.6715C67.2598 25.6715 67.7297 25.751 68.1731 25.91C68.6213 26.0691 69.0164 26.3148 69.3586 26.6474C69.7056 26.9799 69.9779 27.404 70.1755 27.9196C70.3731 28.4305 70.4718 29.0401 70.4718 29.7485V30.3413H63.8503V29.0618H69.5249L68.6357 29.4377C68.6357 28.9799 68.5658 28.5823 68.4261 28.2449C68.2863 27.9028 68.0791 27.6353 67.8044 27.4425C67.5297 27.2498 67.1876 27.1534 66.7779 27.1534C66.3683 27.1534 66.0189 27.2498 65.7298 27.4425C65.4406 27.6353 65.2213 27.8955 65.0719 28.2233C64.9225 28.5461 64.8478 28.9076 64.8478 29.3076V30.1967C64.8478 30.6883 64.9322 31.11 65.1008 31.4618C65.2743 31.8087 65.5153 32.0738 65.8237 32.2569C66.137 32.4401 66.5008 32.5316 66.9153 32.5316C67.1852 32.5316 67.4309 32.4931 67.6526 32.416C67.8791 32.3389 68.0719 32.2232 68.2309 32.069C68.3948 31.9099 68.5201 31.7148 68.6068 31.4834L70.3851 31.6931C70.2694 32.1605 70.055 32.5702 69.7417 32.922C69.4333 33.269 69.0357 33.5388 68.549 33.7316C68.0671 33.9196 67.5129 34.0135 66.8864 34.0135Z" fill="white"/>
<path d="M73.4067 29.1269V33.8545H71.5056V25.7727H73.3706V27.1534H73.4646C73.6477 26.7004 73.9344 26.3414 74.3248 26.0763C74.72 25.8064 75.2212 25.6715 75.8284 25.6715C76.3874 25.6715 76.8742 25.7896 77.2886 26.0257C77.7031 26.2618 78.0235 26.6088 78.25 27.0666C78.4814 27.5196 78.597 28.069 78.597 28.7148V33.8545H76.6959V29.0112C76.6959 28.4714 76.5561 28.0498 76.2766 27.7461C75.9971 27.4377 75.6115 27.2835 75.12 27.2835C74.7874 27.2835 74.4911 27.3558 74.2308 27.5004C73.9754 27.6449 73.773 27.8546 73.6236 28.1293C73.479 28.3992 73.4067 28.7317 73.4067 29.1269Z" fill="white"/>
</svg>
